<svg xmlns="http://www.w3.org/2000/svg" xmlns:xlink="http://www.w3.org/1999/xlink"
  viewBox="-663 -28.4375 815.25 626.5" width="815.25" height="626.5"
  style="background:#fff; font-family:-apple-system,BlinkMacSystemFont,'Segoe UI',Roboto,sans-serif;">
<defs></defs>
<rect x="-663" y="-28.4375" width="815.25" height="626.5" fill="#fff"/>
<g><rect x="-279" y="45.5625" width="349.5" height="172.96875" rx="10" fill="#FFFFFF" stroke="#585A5A" stroke-width="1"/></g>
<g><rect x="-589" y="117.53125" width="101" height="41" rx="10" fill="#FFFFFF" stroke="#585A5A" stroke-width="1"/><text x="-538.5" y="143.28125" text-anchor="middle" font-size="14" font-weight="normal" fill="#333" font-family="-apple-system,BlinkMacSystemFont,sans-serif">候选 POI</text></g>
<g><rect x="-256" y="147.53125" width="121" height="41" rx="10" fill="#FFFFFF" stroke="#585A5A" stroke-width="1"/><text x="-195.5" y="173.28125" text-anchor="middle" font-size="14" font-weight="normal" fill="#333" font-family="-apple-system,BlinkMacSystemFont,sans-serif">UGC 用户评论</text></g>
<g><rect x="-437" y="59.53125" width="101" height="41" rx="10" fill="#FFFFFF" stroke="#585A5A" stroke-width="1"/><text x="-386.5" y="85.28125" text-anchor="middle" font-size="14" font-weight="normal" fill="#333" font-family="-apple-system,BlinkMacSystemFont,sans-serif">Goods 1</text></g>
<g><rect x="-437" y="117.53125" width="101" height="41" rx="10" fill="#FFFFFF" stroke="#585A5A" stroke-width="1"/><text x="-386.5" y="143.28125" text-anchor="middle" font-size="14" font-weight="normal" fill="#333" font-family="-apple-system,BlinkMacSystemFont,sans-serif">Goods 2</text></g>
<g><rect x="-437" y="177.53125" width="101" height="41" rx="10" fill="#FFFFFF" stroke="#585A5A" stroke-width="1"/><text x="-386.5" y="203.28125" text-anchor="middle" font-size="14" font-weight="normal" fill="#333" font-family="-apple-system,BlinkMacSystemFont,sans-serif">Goods n</text></g>
<defs><marker id="m-398a4c42-7140-4d9f-abbe-d96b9299f5e9-end-arrow-585A5A" orient="auto" markerUnits="userSpaceOnUse" markerWidth="10" markerHeight="10" viewBox="0 0 10 10" refX="10" refY="5"><polygon points="0 0, 10 5, 0 10" fill="#585A5A"/></marker></defs><path d="M-488,138.03125 L-462.5,138.03125 L-462.5,80.03125 L-437,80.03125" fill="none" stroke="#585A5A" stroke-width="1" stroke-linecap="butt" stroke-linejoin="miter" marker-end="url(#m-398a4c42-7140-4d9f-abbe-d96b9299f5e9-end-arrow-585A5A)"/>
<defs><marker id="m-e0eb3ae9-1aae-4732-b607-c79c25f8a60d-end-arrow-585A5A" orient="auto" markerUnits="userSpaceOnUse" markerWidth="10" markerHeight="10" viewBox="0 0 10 10" refX="10" refY="5"><polygon points="0 0, 10 5, 0 10" fill="#585A5A"/></marker></defs><path d="M-488,138.03125 L-437,138.03125" fill="none" stroke="#585A5A" stroke-width="1" stroke-linecap="butt" stroke-linejoin="miter" marker-end="url(#m-e0eb3ae9-1aae-4732-b607-c79c25f8a60d-end-arrow-585A5A)"/>
<defs><marker id="m-78efe5f2-8e8e-426f-af12-9d2080b4ff15-end-arrow-585A5A" orient="auto" markerUnits="userSpaceOnUse" markerWidth="10" markerHeight="10" viewBox="0 0 10 10" refX="10" refY="5"><polygon points="0 0, 10 5, 0 10" fill="#585A5A"/></marker></defs><path d="M-488,138.03125 L-462.5,138.03125 L-462.5,198.03125 L-437,198.03125" fill="none" stroke="#585A5A" stroke-width="1" stroke-linecap="butt" stroke-linejoin="miter" marker-end="url(#m-78efe5f2-8e8e-426f-af12-9d2080b4ff15-end-arrow-585A5A)"/>
<g><rect x="-256" y="68.53125" width="121" height="41" rx="10" fill="#FFFFFF" stroke="#585A5A" stroke-width="1"/><text x="-195.5" y="94.28125" text-anchor="middle" font-size="14" font-weight="normal" fill="#333" font-family="-apple-system,BlinkMacSystemFont,sans-serif">名称</text></g>
<g><rect x="-99" y="59.53125" width="155" height="41" rx="10" fill="#FFFFFF" stroke="#585A5A" stroke-width="1"/><text x="-21.5" y="76.53125" text-anchor="middle" font-size="14" font-weight="normal" fill="#333" font-family="-apple-system,BlinkMacSystemFont,sans-serif">标签/地址/品类 等信</text><text x="-21.5" y="94.03125" text-anchor="middle" font-size="14" font-weight="normal" fill="#333" font-family="-apple-system,BlinkMacSystemFont,sans-serif">息</text></g>
<g><rect x="-99" y="147.53125" width="155" height="41" rx="10" fill="#FFFFFF" stroke="#585A5A" stroke-width="1"/><text x="-21.5" y="173.28125" text-anchor="middle" font-size="14" font-weight="normal" fill="#333" font-family="-apple-system,BlinkMacSystemFont,sans-serif">你问我答</text></g>
<defs><marker id="m-e7d1a15b-22a1-4d3f-821c-49525193b319-end-arrow-585A5A" orient="auto" markerUnits="userSpaceOnUse" markerWidth="10" markerHeight="10" viewBox="0 0 10 10" refX="10" refY="5"><polygon points="0 0, 10 5, 0 10" fill="#585A5A"/></marker></defs><path d="M-336,138.03125 L-279,138.03125" fill="none" stroke="#585A5A" stroke-width="1" stroke-linecap="butt" stroke-linejoin="miter" marker-end="url(#m-e7d1a15b-22a1-4d3f-821c-49525193b319-end-arrow-585A5A)"/>
<g><rect x="-409" y="280.5625" width="138.5" height="41" rx="10" fill="#FFFFFF" stroke="#585A5A" stroke-width="1"/><text x="-339.75" y="306.3125" text-anchor="middle" font-size="14" font-weight="normal" fill="#333" font-family="-apple-system,BlinkMacSystemFont,sans-serif">大模型微调</text></g>
<g><rect x="-256" y="280.046875" width="177" height="41" rx="10" fill="#FFFFFF" stroke="#585A5A" stroke-width="1"/><text x="-167.5" y="305.796875" text-anchor="middle" font-size="14" font-weight="normal" fill="#333" font-family="-apple-system,BlinkMacSystemFont,sans-serif">大模型部署 -&gt; 天级更新</text></g>
<g><rect x="-444.5" y="382.5625" width="508.75" height="41" rx="10" fill="#FFFFFF" stroke="#585A5A" stroke-width="1"/><text x="-190.125" y="408.3125" text-anchor="middle" font-size="14" font-weight="normal" fill="#333" font-family="-apple-system,BlinkMacSystemFont,sans-serif">新 goods 名称字段 [4080显卡] [电动床]</text></g>
<g><rect x="-589" y="483.0625" width="495.75" height="41" rx="10" fill="#FFFFFF" stroke="#585A5A" stroke-width="1"/><text x="-341.125" y="508.8125" text-anchor="middle" font-size="14" font-weight="normal" fill="#333" font-family="-apple-system,BlinkMacSystemFont,sans-serif">召回</text></g>
<defs><marker id="m-0d5450c2-868b-4c5b-9c6c-91106a4b1d3a-end-arrow-585A5A" orient="auto" markerUnits="userSpaceOnUse" markerWidth="10" markerHeight="10" viewBox="0 0 10 10" refX="10" refY="5"><polygon points="0 0, 10 5, 0 10" fill="#585A5A"/></marker></defs><path d="M-538.5,158.53125 L-538.375,158.53125 L-538.375,320.796875 L-538.375,483.0625 L-532.625,483.0625 L-542.3942380591357,483.0625" fill="none" stroke="#585A5A" stroke-width="1" stroke-linecap="butt" stroke-linejoin="miter" marker-end="url(#m-0d5450c2-868b-4c5b-9c6c-91106a4b1d3a-end-arrow-585A5A)"/>
<defs><marker id="m-55051d7a-f6c7-45d6-8585-3ead5a6171ba-end-arrow-585A5A" orient="auto" markerUnits="userSpaceOnUse" markerWidth="10" markerHeight="10" viewBox="0 0 10 10" refX="10" refY="5"><polygon points="0 0, 10 5, 0 10" fill="#585A5A"/></marker></defs><path d="M-190.125,423.5625 L-190.125,453.3125 L-341.125,453.3125 L-341.125,483.0625" fill="none" stroke="#585A5A" stroke-width="2" stroke-linecap="butt" stroke-linejoin="miter" marker-end="url(#m-55051d7a-f6c7-45d6-8585-3ead5a6171ba-end-arrow-585A5A)"/>
<g><rect x="-74.25" y="483.0625" width="138.5" height="41" rx="10" fill="#FFFFFF" stroke="#585A5A" stroke-width="1"/><text x="-5" y="508.8125" text-anchor="middle" font-size="14" font-weight="normal" fill="#333" font-family="-apple-system,BlinkMacSystemFont,sans-serif">API 拼接展示</text></g>
<defs><marker id="m-de9c0f92-de98-49a2-91f6-f0b2c832b06f-end-arrow-585A5A" orient="auto" markerUnits="userSpaceOnUse" markerWidth="10" markerHeight="10" viewBox="0 0 10 10" refX="10" refY="5"><polygon points="0 0, 10 5, 0 10" fill="#585A5A"/></marker></defs><path d="M-190.125,423.5625 L-190.125,453.3125 L-5,453.3125 L-5,483.0625" fill="none" stroke="#585A5A" stroke-width="2" stroke-linecap="butt" stroke-linejoin="miter" marker-end="url(#m-de9c0f92-de98-49a2-91f6-f0b2c832b06f-end-arrow-585A5A)"/>
<defs><marker id="m-b2efe0fc-3f07-4a2e-9342-44e85943f460-end-arrow-585A5A" orient="auto" markerUnits="userSpaceOnUse" markerWidth="10" markerHeight="10" viewBox="0 0 10 10" refX="10" refY="5"><polygon points="0 0, 10 5, 0 10" fill="#585A5A"/></marker></defs><path d="M-104.25,218.53125 L-167.25,218.53125 L-167.25,234.0390625 L-167.25,249.546875 L-253.5,249.546875 L-339.75,249.546875 L-339.75,280.5625" fill="none" stroke="#585A5A" stroke-width="2" stroke-linecap="butt" stroke-linejoin="miter" marker-end="url(#m-b2efe0fc-3f07-4a2e-9342-44e85943f460-end-arrow-585A5A)"/>
<defs><marker id="m-3657c1fb-8e99-4198-a9b8-2eaef09a94e4-end-arrow-585A5A" orient="auto" markerUnits="userSpaceOnUse" markerWidth="10" markerHeight="10" viewBox="0 0 10 10" refX="10" refY="5"><polygon points="0 0, 10 5, 0 10" fill="#585A5A"/></marker></defs><path d="M-104.25,218.53125 L-168.25,218.53125 L-168.25,249.2890625 L-167.5,249.2890625 L-167.5,280.046875" fill="none" stroke="#585A5A" stroke-width="2" stroke-linecap="butt" stroke-linejoin="miter" marker-end="url(#m-3657c1fb-8e99-4198-a9b8-2eaef09a94e4-end-arrow-585A5A)"/>
<defs><marker id="m-5578fbc1-7c2a-4baf-b02f-6a05a70e6fbd-end-arrow-585A5A" orient="auto" markerUnits="userSpaceOnUse" markerWidth="10" markerHeight="10" viewBox="0 0 10 10" refX="10" refY="5"><polygon points="0 0, 10 5, 0 10" fill="#585A5A"/></marker></defs><path d="M-167.5,321.046875 L-167.5,351.8046875 L-190.125,351.8046875 L-190.125,382.5625" fill="none" stroke="#585A5A" stroke-width="2" stroke-linecap="butt" stroke-linejoin="miter" marker-end="url(#m-5578fbc1-7c2a-4baf-b02f-6a05a70e6fbd-end-arrow-585A5A)"/>
<defs><marker id="m-2f9af335-ce87-498c-bb55-228e410cffe6-end-arrow-585A5A" orient="auto" markerUnits="userSpaceOnUse" markerWidth="10" markerHeight="10" viewBox="0 0 10 10" refX="10" refY="5"><polygon points="0 0, 10 5, 0 10" fill="#585A5A"/></marker></defs><path d="M-339.75,321.5625 L-339.75,352.0625 L-190.125,352.0625 L-190.125,382.5625" fill="none" stroke="#585A5A" stroke-width="2" stroke-linecap="butt" stroke-linejoin="miter" marker-end="url(#m-2f9af335-ce87-498c-bb55-228e410cffe6-end-arrow-585A5A)"/>
<g><rect x="-60.25" y="280.5625" width="138.5" height="41" rx="10" fill="#FFFFFF" stroke="#585A5A" stroke-width="1"/><text x="9" y="306.3125" text-anchor="middle" font-size="14" font-weight="normal" fill="#333" font-family="-apple-system,BlinkMacSystemFont,sans-serif">BERT 抽取式</text></g>
</svg>